<svg width="109" height="109" viewBox="0 0 109 109" fill="none" xmlns="http://www.w3.org/2000/svg">
<rect width="109" height="109" fill="#EA0028"/>
<path d="M8.088 34V33.172C8.784 33.124 9.288 32.944 9.6 32.632C9.912 32.32 10.068 31.576 10.068 30.4V13.66C10.068 12.484 9.888 11.74 9.528 11.428C9.192 11.092 8.532 10.912 7.548 10.888V10.06H17.808V10.888C17.112 10.912 16.608 11.092 16.296 11.428C15.984 11.74 15.828 12.484 15.828 13.66V20.032C16.02 19.888 16.248 19.792 16.512 19.744C16.8 19.696 17.136 19.672 17.52 19.672H24.324C24.972 19.672 25.428 19.564 25.692 19.348C25.956 19.132 26.088 18.7 26.088 18.052V13.66C26.088 12.484 25.908 11.74 25.548 11.428C25.212 11.092 24.552 10.912 23.568 10.888V10.06H33.828V10.888C33.132 10.912 32.628 11.092 32.316 11.428C32.004 11.74 31.848 12.484 31.848 13.66V30.4C31.848 31.576 32.028 32.32 32.388 32.632C32.748 32.944 33.408 33.124 34.368 33.172V34H24.108V33.172C24.804 33.124 25.308 32.944 25.62 32.632C25.932 32.32 26.088 31.576 26.088 30.4V20.824C25.896 20.992 25.656 21.1 25.368 21.148C25.08 21.196 24.756 21.22 24.396 21.22H17.592C16.944 21.22 16.488 21.328 16.224 21.544C15.96 21.76 15.828 22.18 15.828 22.804V30.4C15.828 31.576 16.008 32.32 16.368 32.632C16.728 32.944 17.388 33.124 18.348 33.172V34H8.088ZM57.41 30.4C57.746 31.216 58.022 31.816 58.238 32.2C58.478 32.584 58.73 32.836 58.994 32.956C59.258 33.052 59.582 33.124 59.966 33.172V34H49.922V33.172C50.882 33.124 51.41 32.836 51.506 32.308C51.626 31.78 51.542 31.144 51.254 30.4L49.454 25.72C49.31 25.84 49.118 25.924 48.878 25.972C48.662 25.996 48.422 26.008 48.158 26.008H44.09C43.586 26.008 43.202 26.068 42.938 26.188C42.674 26.308 42.446 26.608 42.254 27.088L40.958 30.4C40.646 31.192 40.67 31.84 41.03 32.344C41.39 32.848 42.098 33.124 43.154 33.172V34H36.602V33.172C37.13 33.124 37.574 32.86 37.934 32.38C38.318 31.876 38.666 31.216 38.978 30.4L45.89 12.904C46.154 12.28 46.382 11.668 46.574 11.068C46.79 10.468 46.982 9.856 47.15 9.232H49.238C49.406 9.856 49.598 10.468 49.814 11.068C50.03 11.668 50.258 12.28 50.498 12.904L57.41 30.4ZM47.978 24.46C48.314 24.46 48.53 24.412 48.626 24.316C48.746 24.196 48.734 23.956 48.59 23.596L46.106 17.44H46.034L43.226 24.604C43.346 24.532 43.49 24.496 43.658 24.496C43.826 24.472 44.018 24.46 44.234 24.46H47.978ZM68.5809 34.288C68.4129 33.664 68.2689 33.148 68.1489 32.74C68.0529 32.308 67.8729 31.78 67.6089 31.156L60.6609 13.66C60.3489 12.844 60.0729 12.244 59.8329 11.86C59.5929 11.476 59.3409 11.224 59.0769 11.104C58.8369 10.984 58.5249 10.912 58.1409 10.888V10.06H68.2929V10.888C67.3329 10.936 66.7809 11.224 66.6369 11.752C66.5169 12.256 66.6129 12.892 66.9249 13.66L71.7129 25.936H71.7849L76.2489 13.66C76.5609 12.844 76.5369 12.196 76.1769 11.716C75.8169 11.212 75.1089 10.936 74.0529 10.888V10.06H80.6409V10.888C80.1609 10.936 79.7049 11.212 79.2729 11.716C78.8649 12.196 78.5049 12.844 78.1929 13.66L71.8569 31.156C71.6169 31.804 71.4489 32.332 71.3529 32.74C71.2569 33.148 71.1489 33.664 71.0289 34.288H68.5809ZM83.3224 34V33.172C84.0184 33.124 84.5224 32.944 84.8344 32.632C85.1464 32.32 85.3024 31.576 85.3024 30.4V13.66C85.3024 12.484 85.1224 11.74 84.7624 11.428C84.4264 11.092 83.7664 10.912 82.7824 10.888V10.06H100.458V15.1H99.6304C99.5824 14.068 99.2224 13.228 98.5504 12.58C97.9024 11.932 96.8944 11.608 95.5264 11.608H92.6464C92.1424 11.608 91.7464 11.74 91.4584 12.004C91.1944 12.268 91.0624 12.82 91.0624 13.66V20.752C91.2544 20.608 91.4824 20.512 91.7464 20.464C92.0344 20.416 92.3704 20.392 92.7544 20.392H96.2464C96.9664 20.392 97.5664 20.188 98.0464 19.78C98.5264 19.372 98.7784 18.808 98.8024 18.088H99.6304V24.208H98.8024C98.7784 23.32 98.5264 22.72 98.0464 22.408C97.5664 22.096 96.9664 21.94 96.2464 21.94H92.8264C92.1784 21.94 91.7224 22.048 91.4584 22.264C91.1944 22.48 91.0624 22.9 91.0624 23.524V30.4C91.0624 31.24 91.2424 31.792 91.6024 32.056C91.9864 32.32 92.7184 32.452 93.7984 32.452H97.2184C98.6584 32.452 99.7984 32.02 100.638 31.156C101.478 30.292 101.946 29.26 102.042 28.06H102.87L102.582 34H83.3224ZM14.424 66.288C14.328 65.664 14.232 65.148 14.136 64.74C14.04 64.308 13.896 63.78 13.704 63.156L8.736 45.66C8.496 44.82 8.28 44.22 8.088 43.86C7.896 43.476 7.68 43.224 7.44 43.104C7.2 42.984 6.888 42.912 6.504 42.888V42.06H16.656L16.62 42.888C15.684 42.936 15.096 43.224 14.856 43.752C14.616 44.256 14.616 44.892 14.856 45.66L18.168 57H18.24L24.72 41.772H27.24C27.456 42.444 27.66 43.092 27.852 43.716C28.068 44.34 28.332 44.988 28.644 45.66L33.684 57H33.828L37.356 45.66C37.62 44.844 37.536 44.196 37.104 43.716C36.696 43.212 35.928 42.936 34.8 42.888L34.836 42.06H41.928V42.888C41.352 42.936 40.848 43.212 40.416 43.716C40.008 44.196 39.684 44.844 39.444 45.66L34.26 63.156C34.092 63.78 33.96 64.308 33.864 64.74C33.768 65.148 33.66 65.664 33.54 66.288H31.02C30.876 65.664 30.732 65.148 30.588 64.74C30.444 64.308 30.24 63.78 29.976 63.156L24 49.44H23.892L17.988 63.156C17.724 63.804 17.52 64.332 17.376 64.74C17.256 65.148 17.124 65.664 16.98 66.288H14.424ZM44.1583 66V65.172C44.8543 65.124 45.3583 64.944 45.6703 64.632C45.9823 64.32 46.1383 63.576 46.1383 62.4V45.66C46.1383 44.484 45.9583 43.74 45.5983 43.428C45.2623 43.092 44.6023 42.912 43.6183 42.888V42.06H61.2943V47.1H60.4663C60.4183 46.068 60.0583 45.228 59.3863 44.58C58.7383 43.932 57.7303 43.608 56.3623 43.608H53.4823C52.9783 43.608 52.5823 43.74 52.2943 44.004C52.0303 44.268 51.8983 44.82 51.8983 45.66V52.752C52.0903 52.608 52.3183 52.512 52.5823 52.464C52.8703 52.416 53.2063 52.392 53.5903 52.392H57.0823C57.8023 52.392 58.4023 52.188 58.8823 51.78C59.3623 51.372 59.6143 50.808 59.6383 50.088H60.4663V56.208H59.6383C59.6143 55.32 59.3623 54.72 58.8823 54.408C58.4023 54.096 57.8023 53.94 57.0823 53.94H53.6623C53.0143 53.94 52.5583 54.048 52.2943 54.264C52.0303 54.48 51.8983 54.9 51.8983 55.524V62.4C51.8983 63.24 52.0783 63.792 52.4383 64.056C52.8223 64.32 53.5543 64.452 54.6343 64.452H58.0543C59.4943 64.452 60.6343 64.02 61.4743 63.156C62.3143 62.292 62.7823 61.26 62.8783 60.06H63.7063L63.4183 66H44.1583ZM20.58 98.288C20.388 97.736 20.148 97.172 19.86 96.596C19.596 95.996 19.236 95.216 18.78 94.256L12.3 80.72H12.228L11.58 94.4C11.556 95.216 11.748 95.876 12.156 96.38C12.564 96.86 13.308 97.124 14.388 97.172V98H7.728V97.172C8.424 97.124 8.916 96.86 9.204 96.38C9.516 95.876 9.684 95.216 9.708 94.4L10.464 77.66C10.512 76.82 10.452 76.22 10.284 75.86C10.14 75.5 9.876 75.272 9.492 75.176C9.108 75.056 8.592 74.96 7.944 74.888V74.06H15.648C15.84 74.684 16.056 75.272 16.296 75.824C16.56 76.376 16.848 76.988 17.16 77.66L23.352 90.62H23.424L29.184 77.66C29.736 76.436 30.156 75.236 30.444 74.06H38.076V74.888C37.62 74.912 37.236 74.984 36.924 75.104C36.612 75.224 36.384 75.476 36.24 75.86C36.12 76.22 36.072 76.82 36.096 77.66L36.852 94.4C36.9 95.168 36.996 95.744 37.14 96.128C37.308 96.512 37.572 96.776 37.932 96.92C38.292 97.04 38.772 97.124 39.372 97.172V98H29.112V97.172C29.88 97.124 30.408 96.944 30.696 96.632C31.008 96.32 31.14 95.576 31.092 94.4L30.48 79.676H30.408L23.892 94.256C23.436 95.264 23.1 96.056 22.884 96.632C22.692 97.184 22.524 97.736 22.38 98.288H20.58ZM42.6466 98V97.172C43.3426 97.124 43.8466 96.944 44.1586 96.632C44.4706 96.32 44.6266 95.576 44.6266 94.4V77.66C44.6266 76.484 44.4466 75.74 44.0866 75.428C43.7506 75.092 43.0906 74.912 42.1066 74.888V74.06H59.7826V79.1H58.9546C58.9066 78.068 58.5466 77.228 57.8746 76.58C57.2266 75.932 56.2186 75.608 54.8506 75.608H51.9706C51.4666 75.608 51.0706 75.74 50.7826 76.004C50.5186 76.268 50.3866 76.82 50.3866 77.66V84.752C50.5786 84.608 50.8066 84.512 51.0706 84.464C51.3586 84.416 51.6946 84.392 52.0786 84.392H55.5706C56.2906 84.392 56.8906 84.188 57.3706 83.78C57.8506 83.372 58.1026 82.808 58.1266 82.088H58.9546V88.208H58.1266C58.1026 87.32 57.8506 86.72 57.3706 86.408C56.8906 86.096 56.2906 85.94 55.5706 85.94H52.1506C51.5026 85.94 51.0466 86.048 50.7826 86.264C50.5186 86.48 50.3866 86.9 50.3866 87.524V94.4C50.3866 95.24 50.5666 95.792 50.9266 96.056C51.3106 96.32 52.0426 96.452 53.1226 96.452H56.5426C57.9826 96.452 59.1226 96.02 59.9626 95.156C60.8026 94.292 61.2706 93.26 61.3666 92.06H62.1946L61.9066 98H42.6466ZM64.4224 74.06H84.9424V80H84.1144C83.9704 78.704 83.5864 77.648 82.9624 76.832C82.3384 76.016 81.2704 75.608 79.7584 75.608H77.5624V94.4C77.5624 95.576 77.7424 96.32 78.1024 96.632C78.4624 96.944 79.1224 97.124 80.0824 97.172V98H69.8224V97.172C70.5184 97.124 71.0224 96.944 71.3344 96.632C71.6464 96.32 71.8024 95.576 71.8024 94.4V75.608H69.5704C68.1064 75.608 67.0504 76.016 66.4024 76.832C65.7784 77.648 65.3944 78.704 65.2504 80H64.4224V74.06Z" fill="white"/>
</svg>
